<svg width="23" height="30" viewBox="0 0 23 30" fill="none" xmlns="http://www.w3.org/2000/svg">
<path d="M22.3147 22.185L20.3797 20.25V12.75C20.3797 8.145 17.9197 4.29 13.6297 3.27V2.25C13.6297 1.005 12.6247 0 11.3797 0C10.1347 0 9.12971 1.005 9.12971 2.25V3.27C4.82472 4.29 2.37972 8.13 2.37972 12.75V20.25L0.444716 22.185C-0.500284 23.13 0.159716 24.75 1.49472 24.75H21.2497C22.5997 24.75 23.2597 23.13 22.3147 22.185ZM17.3797 21.75H5.37972V12.75C5.37972 9.03 7.64472 6 11.3797 6C15.1147 6 17.3797 9.03 17.3797 12.75V21.75ZM11.3797 29.25C13.0297 29.25 14.3797 27.9 14.3797 26.25H8.37971C8.37971 27.9 9.71472 29.25 11.3797 29.25Z" fill="white"/>
</svg>
