<svg width="36" height="36" viewBox="0 0 36 36" fill="none" xmlns="http://www.w3.org/2000/svg">
<path d="M11.3699 6.12L9.22492 3.975C5.62492 6.72 3.25492 10.95 3.04492 15.75H6.04492C6.26992 11.775 8.30992 8.295 11.3699 6.12ZM29.9549 15.75H32.9549C32.7299 10.95 30.3599 6.72 26.7749 3.975L24.6449 6.12C27.6749 8.295 29.7299 11.775 29.9549 15.75ZM26.9999 16.5C26.9999 11.895 24.5399 8.04 20.2499 7.02V6C20.2499 4.755 19.2449 3.75 17.9999 3.75C16.7549 3.75 15.7499 4.755 15.7499 6V7.02C11.4449 8.04 8.99992 11.88 8.99992 16.5V24L5.99992 27V28.5H29.9999V27L26.9999 24V16.5ZM17.9999 33C18.2099 33 18.4049 32.985 18.5999 32.94C19.5749 32.73 20.3699 32.07 20.7599 31.17C20.9099 30.81 20.9849 30.42 20.9849 30H14.9849C14.9999 31.65 16.3349 33 17.9999 33Z" fill="#345865"/>
</svg>
