<svg width="19" height="19" viewBox="0 0 19 19" fill="none" xmlns="http://www.w3.org/2000/svg">
<circle cx="9.5" cy="9.5" r="9.5" fill="#B3030E"/>
<path d="M9.5 0C13.6367 0 17.1541 2.64466 18.458 6.33496C18.4277 6.3341 18.3968 6.33301 18.3662 6.33301C16.6175 6.33325 15.2002 7.75125 15.2002 9.5C15.2002 11.2487 16.6175 12.6667 18.3662 12.667C18.3968 12.667 18.4277 12.6649 18.458 12.6641C17.1544 16.3548 13.6371 19 9.5 19C9.18027 19 8.86435 18.983 8.55273 18.9521C8.75184 18.5904 8.8662 18.1755 8.86621 17.7334C8.86621 16.3343 7.73213 15.2002 6.33301 15.2002C5.13486 15.2003 4.13363 16.0327 3.87012 17.1504C1.5235 15.4206 0 12.6389 0 9.5C0 4.25329 4.25329 0 9.5 0ZM13.2998 12.667C12.2506 12.6671 11.4005 13.5173 11.4004 14.5664C11.4004 15.6157 12.2506 16.4667 13.2998 16.4668C14.3491 16.4668 15.2002 15.6157 15.2002 14.5664C15.2001 13.5172 14.3491 12.667 13.2998 12.667ZM7.59961 8.86621C6.20067 8.86642 5.06641 10.0014 5.06641 11.4004C5.06662 12.7992 6.2008 13.9334 7.59961 13.9336C8.9986 13.9336 10.1336 12.7993 10.1338 11.4004C10.1338 10.0013 8.99873 8.86621 7.59961 8.86621ZM2.5332 7.59961C1.83385 7.59968 1.26685 8.1669 1.2666 8.86621C1.2666 9.56573 1.8337 10.1337 2.5332 10.1338C3.23276 10.1338 3.7998 9.56577 3.7998 8.86621C3.79956 8.16686 3.23261 7.59961 2.5332 7.59961ZM12.667 7.59961C11.9676 7.59961 11.4006 8.16686 11.4004 8.86621C11.4004 9.56577 11.9674 10.1338 12.667 10.1338C13.3664 10.1336 13.9336 9.56566 13.9336 8.86621C13.9333 8.16697 13.3663 7.59979 12.667 7.59961ZM5.7002 5.06641C5.35041 5.06641 5.06641 5.35041 5.06641 5.7002C5.06651 6.04989 5.35048 6.33301 5.7002 6.33301C6.04982 6.3329 6.3329 6.04982 6.33301 5.7002C6.33301 5.35048 6.04989 5.06651 5.7002 5.06641ZM10.7666 2.5332C9.71729 2.53324 8.86621 3.38427 8.86621 4.43359C8.86635 5.48279 9.71738 6.33297 10.7666 6.33301C11.8159 6.33301 12.6669 5.48282 12.667 4.43359C12.667 3.38425 11.8159 2.5332 10.7666 2.5332Z" fill="#F54D58"/>
</svg>
