<svg width="150" height="30" viewBox="0 0 150 30" fill="none" xmlns="http://www.w3.org/2000/svg">
<path d="M7.77601 23.424C6.21868 23.424 4.85334 23.0933 3.68001 22.432C2.50668 21.7493 1.60001 20.8 0.960009 19.584C0.320009 18.368 9.23872e-06 16.9387 9.23872e-06 15.296C9.23872e-06 13.6747 0.320009 12.256 0.960009 11.04C1.60001 9.80267 2.50668 8.84267 3.68001 8.16C4.85334 7.456 6.21868 7.104 7.77601 7.104C9.35468 7.104 10.72 7.456 11.872 8.16C13.0453 8.864 13.952 9.83467 14.592 11.072C15.232 12.288 15.552 13.6853 15.552 15.264C15.552 15.4987 15.5413 15.7333 15.52 15.968C15.52 16.1813 15.4987 16.3627 15.456 16.512H3.42401V13.376H12.288L11.648 14.88C11.648 13.5573 11.328 12.48 10.688 11.648C10.0693 10.816 9.09868 10.4 7.77601 10.4C6.62401 10.4 5.69601 10.7627 4.99201 11.488C4.28801 12.192 3.93601 13.1413 3.93601 14.336V16.032C3.93601 17.2907 4.28801 18.2827 4.99201 19.008C5.71734 19.712 6.69868 20.064 7.93601 20.064C9.02401 20.064 9.87734 19.84 10.496 19.392C11.1147 18.944 11.648 18.3893 12.096 17.728L15.008 19.392C14.304 20.6933 13.344 21.696 12.128 22.4C10.9333 23.0827 9.48268 23.424 7.77601 23.424Z" fill="#F54D58"/>
<path d="M31.2355 23.104H18.1795V1.312H22.3715V20.416L21.4435 19.104H31.2355V23.104ZM39.9798 23.424C38.4224 23.424 37.0571 23.0933 35.8838 22.432C34.7104 21.7493 33.8038 20.8 33.1638 19.584C32.5238 18.368 32.2038 16.9387 32.2038 15.296C32.2038 13.6747 32.5238 12.256 33.1638 11.04C33.8038 9.80267 34.7104 8.84267 35.8838 8.16C37.0571 7.456 38.4224 7.104 39.9798 7.104C41.5584 7.104 42.9238 7.456 44.0758 8.16C45.2491 8.864 46.1558 9.83467 46.7958 11.072C47.4358 12.288 47.7558 13.6853 47.7558 15.264C47.7558 15.4987 47.7451 15.7333 47.7238 15.968C47.7238 16.1813 47.7024 16.3627 47.6598 16.512H35.6278V13.376H44.4918L43.8518 14.88C43.8518 13.5573 43.5318 12.48 42.8918 11.648C42.2731 10.816 41.3024 10.4 39.9798 10.4C38.8278 10.4 37.8998 10.7627 37.1958 11.488C36.4918 12.192 36.1398 13.1413 36.1398 14.336V16.032C36.1398 17.2907 36.4918 18.2827 37.1958 19.008C37.9211 19.712 38.9024 20.064 40.1398 20.064C41.2278 20.064 42.0811 19.84 42.6998 19.392C43.3184 18.944 43.8518 18.3893 44.2998 17.728L47.2118 19.392C46.5078 20.6933 45.5478 21.696 44.3318 22.4C43.1371 23.0827 41.6864 23.424 39.9798 23.424ZM56.9433 29.504C56.0899 29.504 55.2366 29.376 54.3833 29.12C53.5513 28.864 52.7833 28.448 52.0793 27.872C51.3753 27.3173 50.7779 26.56 50.2873 25.6L50.0313 25.088L53.1353 23.488C53.6686 24.3413 54.2233 24.96 54.7993 25.344C55.3753 25.7493 56.1006 25.952 56.9753 25.952C58.0633 25.952 58.9379 25.6107 59.5993 24.928C60.2819 24.2453 60.6233 23.2 60.6233 21.792V17.856H60.9113V11.136H60.6233L61.6473 7.456H64.8153V20.96C64.8153 22.7947 64.4846 24.352 63.8233 25.632C63.1833 26.912 62.2766 27.872 61.1033 28.512C59.9299 29.1733 58.5433 29.504 56.9433 29.504ZM56.3993 22.24C54.9913 22.24 53.7433 21.92 52.6553 21.28C51.5673 20.64 50.7139 19.7547 50.0953 18.624C49.4766 17.4933 49.1673 16.1813 49.1673 14.688C49.1673 13.1947 49.4659 11.8827 50.0633 10.752C50.6819 9.6 51.5353 8.704 52.6233 8.064C53.7113 7.424 54.9593 7.104 56.3673 7.104C57.6899 7.104 58.8526 7.424 59.8553 8.064C60.8579 8.68267 61.6366 9.568 62.1913 10.72C62.7459 11.8507 63.0233 13.1733 63.0233 14.688C63.0233 16.2453 62.7459 17.5893 62.1913 18.72C61.6579 19.8293 60.8899 20.6933 59.8873 21.312C58.9059 21.9307 57.7433 22.24 56.3993 22.24ZM57.1353 18.56C58.2233 18.56 59.1086 18.1973 59.7913 17.472C60.4739 16.7467 60.8153 15.808 60.8153 14.656C60.8153 13.504 60.4739 12.5653 59.7913 11.84C59.1086 11.1147 58.2233 10.752 57.1353 10.752C56.0473 10.752 55.1513 11.1147 54.4473 11.84C53.7646 12.5653 53.4233 13.5147 53.4233 14.688C53.4233 15.8187 53.7646 16.7467 54.4473 17.472C55.1513 18.1973 56.0473 18.56 57.1353 18.56ZM72.3415 23.104H68.1495V7.456H72.3415V23.104ZM67.7015 2.592C67.7015 1.824 67.9255 1.20534 68.3735 0.736002C68.8428 0.245335 69.4615 1.90735e-06 70.2295 1.90735e-06C70.9975 1.90735e-06 71.6055 0.245335 72.0535 0.736002C72.5228 1.20534 72.7575 1.824 72.7575 2.592C72.7575 3.31734 72.5228 3.91467 72.0535 4.384C71.6055 4.85334 70.9975 5.088 70.2295 5.088C69.4615 5.088 68.8428 4.85334 68.3735 4.384C67.9255 3.91467 67.7015 3.31734 67.7015 2.592ZM81.1438 23.52C79.9491 23.52 78.8078 23.2747 77.7198 22.784C76.6531 22.2933 75.7038 21.44 74.8718 20.224L77.4318 17.984C78.1144 18.752 78.7651 19.3067 79.3838 19.648C80.0238 19.968 80.7384 20.128 81.5278 20.128C82.0611 20.128 82.4878 20 82.8078 19.744C83.1278 19.488 83.2878 19.168 83.2878 18.784C83.2878 18.528 83.2024 18.304 83.0318 18.112C82.8611 17.8987 82.5411 17.696 82.0718 17.504C81.6238 17.312 80.9624 17.1093 80.0878 16.896C78.4664 16.4693 77.2504 15.8933 76.4398 15.168C75.6291 14.4213 75.2238 13.376 75.2238 12.032C75.2238 11.1147 75.4584 10.2827 75.9278 9.536C76.3971 8.768 77.0691 8.16 77.9438 7.712C78.8398 7.264 79.8958 7.04 81.1118 7.04C82.5411 7.04 83.7571 7.31734 84.7598 7.872C85.7838 8.42667 86.6051 9.09867 87.2238 9.888L84.5038 12.16C84.0984 11.7333 83.5758 11.36 82.9358 11.04C82.2958 10.72 81.5491 10.56 80.6958 10.56C80.2264 10.56 79.8104 10.6667 79.4478 10.88C79.0851 11.0933 78.9038 11.4027 78.9038 11.808C78.9038 12.192 79.0958 12.512 79.4798 12.768C79.8851 13.024 80.6531 13.2907 81.7838 13.568C83.7038 14.016 85.0798 14.624 85.9118 15.392C86.7438 16.16 87.1598 17.184 87.1598 18.464C87.1598 19.488 86.8931 20.384 86.3598 21.152C85.8264 21.8987 85.1011 22.4853 84.1838 22.912C83.2878 23.3173 82.2744 23.52 81.1438 23.52ZM93.4738 23.264C92.7698 23.264 92.1191 23.1147 91.5218 22.816C90.9458 22.5173 90.4764 22.0587 90.1138 21.44C89.7724 20.8 89.6018 19.9787 89.6018 18.976V1.312H93.7618V17.504C93.7618 18.2507 93.9111 18.7413 94.2098 18.976C94.5084 19.1893 94.8711 19.296 95.2978 19.296V23.04C95.0631 23.1253 94.7751 23.1787 94.4338 23.2C94.1138 23.2427 93.7938 23.264 93.4738 23.264ZM102.301 23.552C101.149 23.552 100.135 23.3387 99.2605 22.912C98.3858 22.464 97.7138 21.8453 97.2445 21.056C96.7752 20.2453 96.5405 19.3067 96.5405 18.24C96.5405 17.1733 96.7858 16.2453 97.2765 15.456C97.7885 14.6667 98.4818 14.0587 99.3565 13.632C100.231 13.184 101.223 12.96 102.333 12.96C103.847 12.96 105.074 13.312 106.013 14.016C106.973 14.6987 107.623 15.68 107.965 16.96L106.013 16.704V12.928C106.013 12.3307 105.799 11.7973 105.373 11.328C104.946 10.8587 104.253 10.624 103.293 10.624C102.695 10.624 102.034 10.6987 101.309 10.848C100.583 10.976 99.8258 11.232 99.0365 11.616L97.7885 8.544C98.7058 8.096 99.6765 7.744 100.701 7.488C101.746 7.232 102.791 7.104 103.837 7.104C105.266 7.104 106.45 7.36 107.389 7.872C108.327 8.384 109.031 9.088 109.501 9.984C109.97 10.88 110.205 11.904 110.205 13.056V23.104H106.877L105.981 20.128L107.965 19.552C107.602 20.8107 106.93 21.792 105.949 22.496C104.989 23.2 103.773 23.552 102.301 23.552ZM103.453 20.352C104.221 20.352 104.839 20.16 105.309 19.776C105.778 19.392 106.013 18.88 106.013 18.24C106.013 17.5787 105.778 17.0667 105.309 16.704C104.839 16.32 104.221 16.128 103.453 16.128C102.685 16.128 102.066 16.32 101.597 16.704C101.127 17.0667 100.893 17.5787 100.893 18.24C100.893 18.88 101.127 19.392 101.597 19.776C102.066 20.16 102.685 20.352 103.453 20.352ZM120.282 23.488C118.682 23.488 117.285 23.136 116.09 22.432C114.896 21.728 113.968 20.7573 113.306 19.52C112.666 18.2827 112.346 16.864 112.346 15.264C112.346 13.6853 112.666 12.2773 113.306 11.04C113.968 9.80267 114.896 8.84267 116.09 8.16C117.285 7.456 118.682 7.104 120.282 7.104C121.946 7.104 123.408 7.53067 124.666 8.384C125.946 9.216 126.864 10.3467 127.418 11.776L123.578 13.44C123.258 12.7147 122.821 12.1493 122.266 11.744C121.733 11.3387 121.061 11.136 120.25 11.136C119.205 11.136 118.33 11.5093 117.626 12.256C116.922 12.9813 116.57 13.984 116.57 15.264C116.57 16.5653 116.922 17.5787 117.626 18.304C118.33 19.0293 119.205 19.392 120.25 19.392C121.061 19.392 121.733 19.2 122.266 18.816C122.821 18.4107 123.258 17.8453 123.578 17.12L127.418 18.784C126.864 20.192 125.946 21.3333 124.666 22.208C123.386 23.0613 121.925 23.488 120.282 23.488ZM129.299 29.344C128.744 29.344 128.296 29.2907 127.955 29.184C127.613 29.0987 127.389 29.0347 127.283 28.992V25.472C127.389 25.4933 127.517 25.5147 127.667 25.536C127.837 25.5787 128.04 25.6 128.275 25.6C128.68 25.6 128.989 25.4507 129.203 25.152C129.416 24.8747 129.523 24.4907 129.523 24V7.456H133.715V24.544C133.715 25.376 133.565 26.1547 133.267 26.88C132.968 27.6267 132.488 28.224 131.827 28.672C131.187 29.12 130.344 29.344 129.299 29.344ZM129.107 2.592C129.107 1.824 129.331 1.20534 129.779 0.736002C130.248 0.245335 130.867 1.90735e-06 131.635 1.90735e-06C132.403 1.90735e-06 133.011 0.245335 133.459 0.736002C133.928 1.20534 134.163 1.824 134.163 2.592C134.163 3.31734 133.928 3.91467 133.459 4.384C133.011 4.85334 132.403 5.088 131.635 5.088C130.867 5.088 130.248 4.85334 129.779 4.384C129.331 3.91467 129.107 3.31734 129.107 2.592ZM141.716 23.552C140.564 23.552 139.55 23.3387 138.676 22.912C137.801 22.464 137.129 21.8453 136.66 21.056C136.19 20.2453 135.956 19.3067 135.956 18.24C135.956 17.1733 136.201 16.2453 136.692 15.456C137.204 14.6667 137.897 14.0587 138.772 13.632C139.646 13.184 140.638 12.96 141.748 12.96C143.262 12.96 144.489 13.312 145.428 14.016C146.388 14.6987 147.038 15.68 147.38 16.96L145.428 16.704V12.928C145.428 12.3307 145.214 11.7973 144.788 11.328C144.361 10.8587 143.668 10.624 142.708 10.624C142.11 10.624 141.449 10.6987 140.724 10.848C139.998 10.976 139.241 11.232 138.452 11.616L137.204 8.544C138.121 8.096 139.092 7.744 140.116 7.488C141.161 7.232 142.206 7.104 143.252 7.104C144.681 7.104 145.865 7.36 146.804 7.872C147.742 8.384 148.446 9.088 148.916 9.984C149.385 10.88 149.62 11.904 149.62 13.056V23.104H146.292L145.396 20.128L147.38 19.552C147.017 20.8107 146.345 21.792 145.364 22.496C144.404 23.2 143.188 23.552 141.716 23.552ZM142.868 20.352C143.636 20.352 144.254 20.16 144.724 19.776C145.193 19.392 145.428 18.88 145.428 18.24C145.428 17.5787 145.193 17.0667 144.724 16.704C144.254 16.32 143.636 16.128 142.868 16.128C142.1 16.128 141.481 16.32 141.012 16.704C140.542 17.0667 140.308 17.5787 140.308 18.24C140.308 18.88 140.542 19.392 141.012 19.776C141.481 20.16 142.1 20.352 142.868 20.352Z" fill="#345865"/>
</svg>
